<svg width="31" height="28" viewBox="0 0 31 28" fill="none" xmlns="http://www.w3.org/2000/svg">
<path fill-rule="evenodd" clip-rule="evenodd" d="M0 26.6572C0 27.3988 0.59637 28 1.33203 28C2.06769 28 2.66406 27.3988 2.66406 26.6572C2.66406 22.9236 2.92655 19.7217 3.37817 17.0047C4.03267 23.7667 7.56705 27.8474 11.8672 27.8474C16.6371 27.8474 20.4648 22.8263 20.4648 14.6943C20.4648 10.4892 19.2868 6.99152 17.3801 4.65534C16.7328 3.86226 15.9942 3.19876 15.1908 2.69467C15.3329 2.68822 15.4752 2.68519 15.6174 2.68559C18.0121 2.69222 20.4117 3.66862 22.2205 5.63402C23.9164 7.47667 25.1538 10.2585 25.2951 14.0787L24.313 13.0886C23.7928 12.5643 22.9494 12.5643 22.4292 13.0886C21.909 13.613 21.909 14.4632 22.4292 14.9876L25.5776 18.1614C26.0978 18.6858 26.9412 18.6858 27.4614 18.1614L30.6099 14.9876C31.13 14.4632 31.13 13.613 30.6099 13.0886C30.0897 12.5643 29.2463 12.5643 28.7261 13.0886L27.9529 13.8681C27.771 9.55263 26.3459 6.16788 24.1735 3.80746C21.8501 1.28295 18.7399 0.00867216 15.6248 4.40858e-05C13.2924 -0.00641393 10.9619 0.696653 8.9619 2.10199C6.57148 3.06411 4.4512 5.37584 2.89463 8.93396C1.12631 12.9761 7.9845e-07 18.7931 0 26.6572ZM9.01779 5.58861C9.39565 5.18153 9.79938 4.81746 10.2235 4.49628C10.3332 4.45976 10.4419 4.42834 10.5493 4.40182C12.1691 4.00193 13.902 4.62082 15.3228 6.36162C16.7537 8.11481 17.8008 10.9648 17.8008 14.6943C17.8008 22.3094 14.3629 25.1619 11.8672 25.1619C9.37149 25.1619 5.93359 22.3094 5.93359 14.6943C5.9336 10.525 7.21698 7.52862 9.01779 5.58861Z" fill="black" style="fill:black;fill-opacity:1;"/>
</svg>
