<svg width="40" height="36" viewBox="0 0 40 36" fill="none" xmlns="http://www.w3.org/2000/svg">
<path fill-rule="evenodd" clip-rule="evenodd" d="M0 34.2736C0 35.2271 0.76951 36 1.71875 36C2.66799 36 3.4375 35.2271 3.4375 34.2736C3.4375 29.4733 3.77619 25.3565 4.35893 21.8632C5.20344 30.5572 9.76394 35.8038 15.3125 35.8038C21.4672 35.8038 26.4062 29.3481 26.4063 18.8927C26.4063 13.4861 24.8862 8.98909 22.4259 5.98544C21.5907 4.96576 20.6377 4.11269 19.601 3.46458C19.7845 3.45629 19.968 3.45239 20.1515 3.4529C23.2414 3.46143 26.3376 4.71679 28.6717 7.24374C30.8599 9.61286 32.4566 13.1895 32.6388 18.1012L31.3716 16.8283C30.7004 16.154 29.6121 16.154 28.9409 16.8283C28.2697 17.5025 28.2697 18.5956 28.9409 19.2698L33.0034 23.3504C33.6746 24.0246 34.7629 24.0246 35.4341 23.3504L39.4966 19.2698C40.1678 18.5956 40.1678 17.5025 39.4966 16.8283C38.8254 16.154 37.7371 16.154 37.0659 16.8283L36.0682 17.8304C35.8335 12.282 33.9948 7.93013 31.1916 4.89531C28.1936 1.64951 24.1805 0.0111499 20.161 5.66817e-05C17.1515 -0.00824648 14.1444 0.895696 11.5637 2.70256C8.47933 3.93957 5.74348 6.91179 3.735 11.4865C1.45331 16.6835 1.03026e-06 24.1626 0 34.2736ZM11.6359 7.18535C12.1234 6.66197 12.6444 6.19388 13.1916 5.78093C13.3332 5.73397 13.4734 5.69358 13.612 5.65949C15.7021 5.14534 17.9381 5.94106 19.7714 8.17922C21.6177 10.4333 22.9688 14.0977 22.9688 18.8927C22.9688 28.6835 18.5328 32.351 15.3125 32.351C12.0922 32.351 7.65625 28.6835 7.65625 18.8927C7.65625 13.5321 9.31223 9.67966 11.6359 7.18535Z" fill="black" style="fill:black;fill-opacity:1;"/>
</svg>
