<svg width="1282" height="1281" viewBox="0 0 1282 1281" fill="none" xmlns="http://www.w3.org/2000/svg">
<circle cx="161.019" cy="161.019" r="160.519" transform="matrix(1 0 0 -1 479.652 801.357)" stroke="#EEEEEE" style="stroke:#EEEEEE;stroke:color(display-p3 0.9333 0.9333 0.9333);stroke-opacity:1;"/>
<circle cx="318.293" cy="318.293" r="317.793" transform="matrix(1 0 0 -1 322.012 958.996)" stroke="#EEEEEE" style="stroke:#EEEEEE;stroke:color(display-p3 0.9333 0.9333 0.9333);stroke-opacity:1;"/>
<circle cx="450.603" cy="450.603" r="450.103" transform="matrix(1 0 0 -1 189.934 1092.16)" stroke="#EEEEEE" style="stroke:#EEEEEE;stroke:color(display-p3 0.9333 0.9333 0.9333);stroke-opacity:1;"/>
<circle cx="637.835" cy="637.835" r="637.335" transform="matrix(1 0 0 -1 2.47266 1279.39)" stroke="#EEEEEE" style="stroke:#EEEEEE;stroke:color(display-p3 0.9333 0.9333 0.9333);stroke-opacity:1;"/>
<rect x="0.5" y="-0.5" width="905.2" height="905.2" transform="matrix(1 0 0 -1 187.379 1091.16)" stroke="#EEEEEE" style="stroke:#EEEEEE;stroke:color(display-p3 0.9333 0.9333 0.9333);stroke-opacity:1;"/>
<rect x="0.5" y="-0.5" width="635.587" height="635.587" transform="matrix(1 0 0 -1 324.508 956.354)" stroke="#EEEEEE" style="stroke:#EEEEEE;stroke:color(display-p3 0.9333 0.9333 0.9333);stroke-opacity:1;"/>
<line y1="-0.5" x2="1275.67" y2="-0.5" transform="matrix(4.37114e-08 -1 -1 -4.37114e-08 640.703 1278.54)" stroke="#EEEEEE" style="stroke:#EEEEEE;stroke:color(display-p3 0.9333 0.9333 0.9333);stroke-opacity:1;"/>
<line y1="-0.5" x2="1278.17" y2="-0.5" transform="matrix(-1 0 0 1 1280.64 640.307)" stroke="#EEEEEE" style="stroke:#EEEEEE;stroke:color(display-p3 0.9333 0.9333 0.9333);stroke-opacity:1;"/>
<line y1="-0.5" x2="1278.17" y2="-0.5" transform="matrix(-1 0 0 1 1280.64 957.354)" stroke="#EEEEEE" style="stroke:#EEEEEE;stroke:color(display-p3 0.9333 0.9333 0.9333);stroke-opacity:1;"/>
<line y1="-0.5" x2="1278.17" y2="-0.5" transform="matrix(-1 0 0 1 1280.64 323.262)" stroke="#EEEEEE" style="stroke:#EEEEEE;stroke:color(display-p3 0.9333 0.9333 0.9333);stroke-opacity:1;"/>
<line y1="-0.5" x2="1806.56" y2="-0.5" transform="matrix(-0.707107 -0.707107 -0.707107 0.707107 1280.64 1280.64)" stroke="#EEEEEE" style="stroke:#EEEEEE;stroke:color(display-p3 0.9333 0.9333 0.9333);stroke-opacity:1;"/>
<line y1="-0.5" x2="1810.09" y2="-0.5" transform="matrix(-0.707107 0.707107 0.707107 0.707107 1280.64 0.707031)" stroke="#EEEEEE" style="stroke:#EEEEEE;stroke:color(display-p3 0.9333 0.9333 0.9333);stroke-opacity:1;"/>
</svg>
